<svg width="60" height="60" viewBox="0 0 160 160" fill="none" xmlns="http://www.w3.org/2000/svg">
<circle cx="80" cy="80" r="80" fill="#F51B42"/>
<path d="M73.9134 108.944L65.6219 106.938C64.7519 106.734 64.2626 105.975 64.5073 105.25L83.0613 51.9814C83.306 51.2564 84.2167 50.8485 85.0866 51.0524L93.3781 53.0577C94.2481 53.2616 94.7374 54.0206 94.4927 54.7457L75.9387 108.015C75.6805 108.74 74.7833 109.159 73.9134 108.944ZM58.4177 96.2324L64.3306 90.9757C64.9558 90.4206 64.915 89.537 64.2218 89.0272L51.9068 79.998L64.2218 70.9688C64.915 70.459 64.9694 69.5753 64.3306 69.0202L58.4177 63.7635C57.8061 63.2198 56.773 63.1858 56.107 63.7069L36.5199 79.001C35.8267 79.5335 35.8267 80.4511 36.5199 80.9836L56.107 96.289C56.773 96.8102 57.8061 96.7875 58.4177 96.2324ZM102.893 96.3004L122.48 80.9949C123.173 80.4625 123.173 79.5448 122.48 79.0124L102.893 63.6956C102.241 63.1858 101.208 63.2084 100.582 63.7522L94.6694 69.0089C94.0442 69.564 94.085 70.4476 94.7782 70.9574L107.093 79.998L94.7782 89.0272C94.085 89.537 94.0306 90.4206 94.6694 90.9757L100.582 96.2324C101.194 96.7875 102.227 96.8102 102.893 96.3004Z" fill="black"/>
<path d="M79.5 133C111.256 133 137 109.271 137 80C137 50.7289 111.256 27 79.5 27C47.7436 27 22 50.7289 22 80C22 109.271 47.7436 133 79.5 133Z" stroke="#EEDDDD" stroke-width="2" stroke-linecap="round" stroke-linejoin="round"/>
<path d="M122 101.5L114.5 123L137.5 116" stroke="#EEDDDD" stroke-width="2" stroke-linecap="round" stroke-linejoin="round"/>
</svg>
